# xmcd
#
# Track frame offsets: 
#        150
#        16618
#        30110
#        46987
#        64211
#        78102
#        91794
#        105873
#        122032
#        135403
#        149643
#        161978
#        173807
#        188205
#        199235
#        211580
#        228085
#        243554
#
# Disc length: 3452 seconds
#
# Revision: 1
# Processed by: cddbd v1.5.2PL0 Copyright (c) Steve Scherf et al.
# Submitted via: ExactAudioCopy v0.99pb5
#
DISCID=de0d7a12
DTITLE=TOM ASTOR - STATIONEN - SEINE GRÖSSTEN ERFOLGE
DYEAR=1900
DGENRE=Country
TTITLE0=Irgendwie Wird's Schon Geh'n (1999)
TTITLE1=Kleiner Rebell (1994)
TTITLE2=Lass Uns Doch Wieder Mal ... (1998)
TTITLE3=Worauf Willst Du Noch Warten (2000)
TTITLE4=Hautnah (2000)
TTITLE5=Ich Bin Wie Ich Bin (1995)
TTITLE6=Ehrlichkeit (1999)
TTITLE7=Ja, Ich Bin Einfach, So Wie Du, Unterwegs (1991)
TTITLE8=Der Kleine Trucker (1996)
TTITLE9=Ich Vermiss' Dich Immer Schon - Bevor Ich Wieder Geh (1998)
TTITLE10=Du Bist Mein Bester Freund (You´re My Best Friend) (1996)
TTITLE11=Ein Unbekannter Stuntman (Unknown Stuntman) (1987)
TTITLE12=Ring Of Fire (With Johnny Cash) (1996)
TTITLE13=Ja, Das Sind Stunden (Die Vergißt Man Nie) (1988)
TTITLE14=Junge, Zieh' Die Bremse An (1996)
TTITLE15=Verrückt Sein Und Sonst Gar Nichts (1994)
TTITLE16=Bist Du Einsam Heut' Nacht? (Are You Lonesome Tonight?) (With
TTITLE16=The Jordanaires) (1991)
TTITLE17=Hand In Hand (Amazing Grace) (1998)
EXTD=ID3G: 2
EXTT0=
EXTT1=
EXTT2=
EXTT3=
EXTT4=
EXTT5=
EXTT6=
EXTT7=
EXTT8=
EXTT9=
EXTT10=
EXTT11=
EXTT12=
EXTT13=
EXTT14=
EXTT15=
EXTT16=
EXTT17=
PLAYORDER=
